<svg width="51" height="17" viewBox="0 0 51 17" fill="none" xmlns="http://www.w3.org/2000/svg">
<path d="M20.2409 12.4484C19.9572 12.4484 19.8153 12.2931 19.8153 11.9824V4.00366C19.8153 3.69296 19.9572 3.53761 20.2409 3.53761H21.1408C21.4894 3.53761 21.7528 3.6826 21.9312 3.97259L25.032 9.06183H25.0746C25.0543 8.81327 25.0442 8.56471 25.0442 8.31615V4.00366C25.0442 3.69296 25.186 3.53761 25.4698 3.53761H26.394C26.6777 3.53761 26.8196 3.69296 26.8196 4.00366V11.9824C26.8196 12.2931 26.6777 12.4484 26.394 12.4484H25.5549C25.2063 12.4484 24.9428 12.3035 24.7645 12.0135L21.6029 6.83102H21.5603C21.5806 7.07957 21.5907 7.32813 21.5907 7.57669V11.9824C21.5907 12.2931 21.4488 12.4484 21.1651 12.4484H20.2409Z" fill="#212056"/>
<path d="M28.2788 9.18611C28.2788 8.13802 28.5341 7.31156 29.0449 6.70674C29.5596 6.10191 30.2852 5.7995 31.2215 5.7995C32.3078 5.7995 33.1145 6.08534 33.6414 6.65702C34.1683 7.22871 34.4318 8.14838 34.4318 9.41603C34.4318 9.66459 34.3183 9.78887 34.0913 9.78887H30.0785C30.1433 10.4765 30.3095 10.9095 30.577 11.0876C30.8446 11.2657 31.1547 11.3548 31.5073 11.3548C31.8437 11.3548 32.1011 11.3092 32.2795 11.2181C32.4578 11.1269 32.6078 11.0027 32.7294 10.8452C32.8672 10.663 33.0374 10.634 33.2401 10.7582L33.8481 11.1373C34.0873 11.2864 34.1217 11.4646 33.9515 11.6717C33.7042 11.9741 33.4144 12.1999 33.082 12.349C32.7497 12.4982 32.2247 12.5727 31.5073 12.5727C30.344 12.5727 29.5151 12.2703 29.0205 11.6655C28.526 11.0607 28.2788 10.2342 28.2788 9.18611ZM30.0846 8.54607H32.7294C32.7294 8.09867 32.6199 7.73411 32.4011 7.45241C32.1822 7.16657 31.8336 7.02365 31.3553 7.02365C30.9743 7.02365 30.6723 7.16036 30.4494 7.43377C30.2264 7.70304 30.1048 8.07381 30.0846 8.54607Z" fill="#212056"/>
<path d="M36.1221 12.4484C35.8789 12.4484 35.7573 12.3242 35.7573 12.0756V4.73691C35.7573 4.55049 35.7998 4.38064 35.8849 4.22736L36.3531 3.38847C36.4423 3.23105 36.5477 3.15234 36.6693 3.15234H37.0949C37.3381 3.15234 37.4597 3.27662 37.4597 3.52518V12.0756C37.4597 12.3242 37.3381 12.4484 37.0949 12.4484H36.1221Z" fill="#212056"/>
<path d="M39.4783 12.4484C39.2351 12.4484 39.1135 12.3242 39.1135 12.0756V4.73691C39.1135 4.55049 39.156 4.38064 39.2412 4.22736L39.7093 3.38847C39.7985 3.23105 39.9039 3.15234 40.0255 3.15234H40.4511C40.6943 3.15234 40.8159 3.27662 40.8159 3.52518V12.0756C40.8159 12.3242 40.6943 12.4484 40.4511 12.4484H39.4783Z" fill="#212056"/>
<path d="M42.8345 12.4484C42.5913 12.4484 42.4697 12.3242 42.4697 12.0756V6.29661C42.4697 6.04805 42.5913 5.92378 42.8345 5.92378H43.8073C44.0505 5.92378 44.1721 6.04805 44.1721 6.29661V12.0756C44.1721 12.3242 44.0505 12.4484 43.8073 12.4484H42.8345ZM42.8345 4.96682C42.5913 4.96682 42.4697 4.84254 42.4697 4.59399V3.7986C42.4697 3.55004 42.5913 3.42576 42.8345 3.42576H43.8073C44.0505 3.42576 44.1721 3.55004 44.1721 3.7986V4.59399C44.1721 4.84254 44.0505 4.96682 43.8073 4.96682H42.8345Z" fill="#212056"/>
<path d="M45.4854 10.7085C45.4854 9.88 45.8725 9.27932 46.6467 8.90648C47.4209 8.53364 48.3045 8.3348 49.2976 8.30994V8.06138C49.2976 7.68026 49.2044 7.41099 49.0179 7.25357C48.8315 7.09615 48.572 7.01743 48.2397 7.01743C48.0046 7.01743 47.7958 7.05265 47.6134 7.12307C47.4351 7.18935 47.279 7.26806 47.1453 7.3592C47.0155 7.4462 46.898 7.53527 46.7926 7.6264C46.6062 7.79211 46.4521 7.8004 46.3305 7.65126L45.8259 7.01743C45.7002 6.86001 45.7306 6.69845 45.9171 6.53274C46.0589 6.40432 46.2231 6.29247 46.4096 6.19719C46.6001 6.10191 46.8514 6.01284 47.1635 5.92999C47.4756 5.84299 47.8809 5.7995 48.3795 5.7995C49.2226 5.7995 49.8691 5.99834 50.3191 6.39604C50.773 6.79373 51 7.37992 51 8.15459V12.0756C51 12.3242 50.8784 12.4484 50.6352 12.4484H49.6381C49.4192 12.4484 49.3098 12.3242 49.3098 12.0756V11.8892H49.2976C49.0584 12.1253 48.7707 12.2993 48.4342 12.4112C48.1018 12.5189 47.7958 12.5727 47.5161 12.5727C46.8514 12.5727 46.3467 12.407 46.0022 12.0756C45.6577 11.7401 45.4854 11.2844 45.4854 10.7085ZM47.2851 10.6713C47.2851 10.8162 47.3135 10.9426 47.3702 11.0503C47.427 11.1539 47.5161 11.2305 47.6377 11.2802C47.7593 11.3299 47.8951 11.3548 48.0451 11.3548C48.2518 11.3548 48.4525 11.3258 48.647 11.2678C48.8416 11.2098 49.0584 11.0731 49.2976 10.8577V9.50924C48.6166 9.58795 48.1606 9.68944 47.9296 9.81372C47.6985 9.938 47.5323 10.0664 47.431 10.199C47.3337 10.3316 47.2851 10.489 47.2851 10.6713Z" fill="#212056"/>
<mask id="mask0_705_1654" style="mask-type:luminance" maskUnits="userSpaceOnUse" x="0" y="0" width="17" height="17">
<path d="M16.5669 0.226562H0V16.4686H16.5669V0.226562Z" fill="white"/>
</mask>
<g mask="url(#mask0_705_1654)">
<path d="M1.62531 7.40371C1.55787 7.15568 1.55786 6.89454 1.62529 6.64651C1.69271 6.39849 1.8252 6.17233 2.00942 5.99077L5.84824 2.20717C6.03245 2.02559 6.26192 1.89501 6.51356 1.82856C6.7652 1.7621 7.03016 1.76211 7.2818 1.82858L10.874 2.77726C10.9114 2.29222 11.0827 1.82651 11.3694 1.43056L7.0429 0.288065C6.73236 0.20606 6.40539 0.206062 6.09485 0.28807C5.7843 0.370079 5.50113 0.531205 5.27379 0.755256L0.536408 5.42449C0.309087 5.64857 0.14561 5.92766 0.0624053 6.23374C-0.0208 6.53981 -0.0208018 6.86209 0.0623998 7.16816L1.26616 11.596C1.65967 11.2998 2.12818 11.1158 2.62053 11.0643L1.62531 7.40371Z" fill="#18CDCA"/>
<path d="M13.9513 5.66845L14.965 9.39697C15.0315 9.64148 15.0314 9.89884 14.965 10.1433C14.8985 10.3878 14.7679 10.6106 14.5863 10.7896L10.8027 14.5189C10.6211 14.6979 10.395 14.8265 10.1469 14.8921C9.89897 14.9575 9.63776 14.9575 9.38978 14.8921L5.72925 13.9252C5.67767 14.4036 5.49373 14.8587 5.19751 15.241L9.62533 16.4103C9.93138 16.4912 10.2537 16.4912 10.5597 16.4103C10.8658 16.3295 11.1449 16.1707 11.369 15.9499L16.0382 11.3477C16.2623 11.1269 16.4234 10.8518 16.5054 10.5501C16.5874 10.2484 16.5874 9.93078 16.5054 9.62914L15.2742 5.10156C14.8946 5.40698 14.4368 5.60315 13.9513 5.66845Z" fill="#18CDCA"/>
<path d="M1.31568 12.2113C0.997664 12.5067 0.781094 12.883 0.693353 13.2927C0.605612 13.7024 0.650643 14.127 0.82275 14.513C0.994849 14.8988 1.2863 15.2287 1.66024 15.4608C2.03418 15.6928 2.47381 15.8167 2.92354 15.8167C3.37327 15.8167 3.81291 15.6928 4.18684 15.4608C4.56079 15.2287 4.85224 14.8988 5.02434 14.513C5.19645 14.127 5.24147 13.7024 5.15373 13.2927C5.066 12.883 4.84943 12.5067 4.53141 12.2113C4.10465 11.8159 3.5264 11.5938 2.92354 11.5938C2.32069 11.5938 1.74244 11.8159 1.31568 12.2113Z" fill="url(#paint0_linear_705_1654)"/>
<path d="M11.9879 1.49259C11.6927 1.78795 11.4915 2.16426 11.4101 2.57394C11.3286 2.98362 11.3704 3.40826 11.5302 3.79418C11.6901 4.18008 11.9607 4.50993 12.3078 4.74199C12.6551 4.97406 13.0634 5.09793 13.4809 5.09793C13.8986 5.09793 14.3068 4.97406 14.6541 4.74199C15.0013 4.50993 15.2719 4.18008 15.4317 3.79418C15.5915 3.40826 15.6333 2.98362 15.5518 2.57394C15.4704 2.16426 15.2693 1.78795 14.974 1.49259C14.5778 1.0971 14.0408 0.875 13.4809 0.875C12.9212 0.875 12.3842 1.0971 11.9879 1.49259Z" fill="url(#paint1_linear_705_1654)"/>
<path d="M9.5426 14.1936C9.45646 14.1936 9.37076 14.1824 9.28755 14.1601L5.93591 13.262C5.82415 12.6652 5.53462 12.1162 5.10529 11.6869C4.67595 11.2576 4.12688 10.968 3.53008 10.8563L2.63205 7.50511C2.58753 7.33796 2.58766 7.16204 2.63243 6.99496C2.67721 6.82787 2.76506 6.67546 2.8872 6.55296L6.32729 3.11296C6.44966 2.99059 6.60208 2.90259 6.76924 2.8578C6.93642 2.81302 7.11243 2.81303 7.27958 2.85783L10.5373 3.73068C10.6665 4.32375 10.9718 4.86396 11.4133 5.28057C11.8547 5.69716 12.4117 5.97073 13.0113 6.06542L13.9349 9.51297C13.9794 9.68018 13.9793 9.85611 13.9345 10.0231C13.8897 10.1903 13.8019 10.3427 13.6797 10.4652L10.2396 13.9051C10.1483 13.9969 10.0396 14.0697 9.91995 14.1191C9.80033 14.1687 9.67209 14.194 9.5426 14.1936Z" fill="url(#paint2_linear_705_1654)"/>
</g>
<defs>
<linearGradient id="paint0_linear_705_1654" x1="0.821922" y1="13.7052" x2="5.04239" y2="13.7052" gradientUnits="userSpaceOnUse">
<stop stop-color="#02ABB0"/>
<stop offset="0.337734" stop-color="#01B3AF"/>
<stop offset="0.628848" stop-color="#01BFAE"/>
<stop offset="0.959302" stop-color="#00CAAC"/>
</linearGradient>
<linearGradient id="paint1_linear_705_1654" x1="11.5295" y1="2.98646" x2="15.4485" y2="2.98646" gradientUnits="userSpaceOnUse">
<stop stop-color="#02ABB0"/>
<stop offset="0.337734" stop-color="#01B3AF"/>
<stop offset="0.628848" stop-color="#01BFAE"/>
<stop offset="0.959302" stop-color="#00CAAC"/>
</linearGradient>
<linearGradient id="paint2_linear_705_1654" x1="3.02942" y1="8.50893" x2="13.5806" y2="8.50893" gradientUnits="userSpaceOnUse">
<stop stop-color="#02ABB0"/>
<stop offset="0.337734" stop-color="#01B3AF"/>
<stop offset="0.628848" stop-color="#01BFAE"/>
<stop offset="0.959302" stop-color="#00CAAC"/>
</linearGradient>
</defs>
</svg>
