<svg width="60" height="60" viewBox="0 0 60 60" fill="none" xmlns="http://www.w3.org/2000/svg">
<path d="M31.4815 48.6422H49.8519C51.0699 48.6422 52.238 49.1365 53.0993 50.0163C53.4923 50.4177 53.8067 50.8843 54.0324 51.3913C54.4816 52.4004 53.549 53.3335 52.4444 53.3335H28.8889C27.7843 53.3335 26.8517 52.4004 27.301 51.3913C27.5267 50.8843 27.8411 50.4177 28.234 50.0163C29.0953 49.1365 30.2635 48.6422 31.4815 48.6422ZM31.4815 45.9508C31.4815 44.8463 32.3769 43.9508 33.4815 43.9508H47.8519C48.9564 43.9508 49.8519 44.8463 49.8519 45.9508V48.6422H31.4815V45.9508ZM41.3631 22.9814C42.1245 23.759 42.1244 25.0026 41.3629 25.7801L34.417 32.872C33.6326 33.6729 32.3432 33.6727 31.559 32.8716L21.3695 22.463C20.6084 21.6856 20.6084 20.4424 21.3693 19.665L28.3118 12.5715C29.0961 11.7701 30.3858 11.77 31.1702 12.5712L41.3631 22.9814Z" fill="#006D77"/>
<path d="M28.2947 29.4462L10.27 47.465C9.48495 48.2498 8.21093 48.2451 7.43167 47.4545L6.94971 46.9656C6.1782 46.1829 6.1828 44.9243 6.96001 44.1472L25.0001 26.1108L28.2947 29.4462Z" fill="#006D77"/>
<path d="M17.7773 16.6664L25.5551 8.88867" stroke="#83C5BE" stroke-width="3" stroke-linecap="round"/>
<path d="M37.2227 36.6664L45.0004 28.8887" stroke="#83C5BE" stroke-width="3" stroke-linecap="round"/>
</svg>
