<svg width="51" height="60" viewBox="0 0 51 60" fill="none" xmlns="http://www.w3.org/2000/svg">
<circle cx="23.5" cy="14.5" r="7.5" fill="#006D77"/>
<path d="M17 31.5V46C17 46.5523 17.4477 47 18 47H32C32.5523 47 33 46.5523 33 46V28.9848C33 28.3639 33.2884 27.7781 33.7806 27.3996L44.1946 19.3888C45.1515 18.6527 45.243 17.243 44.3893 16.3893L35.5227 7.52272C34.6817 6.68175 33.3183 6.68175 32.4773 7.52272C31.6543 8.34574 31.6341 9.67378 32.4319 10.5213L37.3594 15.7569C38.214 16.6649 38.0385 18.125 36.993 18.8045L31.2369 22.546C29.777 23.4949 28.0732 24 26.332 24H15.3462C12.1174 24 9.5 26.6174 9.5 29.8462V40.75C9.5 41.9926 10.5074 43 11.75 43C12.9926 43 14 41.9926 14 40.75V31.5C14 30.6716 14.6716 30 15.5 30C16.3284 30 17 30.6716 17 31.5Z" fill="#006D77"/>
<path d="M7 7.53465C7.17466 7.11741 7.45925 6.75537 7.82344 6.48711C8.18763 6.21886 8.61778 6.05443 9.06805 6.01136C9.51831 5.96829 9.97183 6.04819 10.3803 6.24254C10.7887 6.43689 11.1368 6.73841 11.3874 7.11497C11.638 7.49153 11.7817 7.92903 11.8033 8.38084C11.8248 8.83265 11.7234 9.28184 11.5098 9.68056C11.2962 10.0793 10.9784 10.4126 10.5904 10.6449V10.6449C9.95127 11.0276 9.3061 11.6038 9.3061 12.3487V13.5" stroke="#83C5BE" stroke-width="2" stroke-linecap="round"/>
<circle cx="9.30566" cy="16.5" r="0.5" fill="#83C5BE" stroke="#83C5BE"/>
</svg>
