<svg width="60" height="60" viewBox="0 0 60 60" fill="none" xmlns="http://www.w3.org/2000/svg">
<path d="M23.4871 30.2859C24.2679 31.067 24.2678 32.3331 23.4868 33.1141L19.802 36.7989C18.8586 37.7329 18.851 39.2546 19.785 40.1979C20.7189 41.1413 22.2406 41.1489 23.184 40.2149C23.1898 40.2097 23.1951 40.2038 23.201 40.1979L26.8856 36.5133C27.6666 35.7323 28.933 35.7323 29.714 36.5133L29.9996 36.7989C31.877 38.6763 31.877 41.7202 29.9996 43.5976L23.201 50.3956C21.3236 52.2729 18.2797 52.2729 16.4023 50.3956L9.6043 43.597C7.72695 41.7196 7.72695 38.6757 9.6043 36.7983L16.4029 30.0003C18.2803 28.1229 21.3242 28.1229 23.2016 30.0003L23.4871 30.2859Z" fill="#83C5BE"/>
<path d="M23.333 7.22217V11.6666" stroke="#006D77" stroke-width="3" stroke-linecap="round"/>
<path d="M36.667 52.7778L36.667 48.3334" stroke="#006D77" stroke-width="3" stroke-linecap="round"/>
<path d="M13.333 13.3335L16.323 16.6218" stroke="#006D77" stroke-width="3" stroke-linecap="round"/>
<path d="M46.667 46.6665L43.677 43.3782" stroke="#006D77" stroke-width="3" stroke-linecap="round"/>
<path d="M7.77734 23.3335H12.2218" stroke="#006D77" stroke-width="3" stroke-linecap="round"/>
<path d="M52.2227 36.6665L47.7782 36.6665" stroke="#006D77" stroke-width="3" stroke-linecap="round"/>
<path d="M36.5128 29.7146C35.7318 28.9336 35.7318 27.6672 36.5128 26.8862L40.1975 23.2016C41.1314 22.2582 41.1238 20.7365 40.1805 19.8025C39.2436 18.875 37.7348 18.875 36.7979 19.8025L33.1135 23.4869C32.3323 24.2681 31.0658 24.2679 30.2848 23.4867L29.9998 23.2016C28.1225 21.3242 28.1225 18.2803 29.9998 16.4029L36.7984 9.6043C38.6758 7.72695 41.7197 7.72695 43.5971 9.6043L50.3957 16.4029C52.273 18.2803 52.273 21.3242 50.3957 23.2016L43.5971 30.0002C41.7197 31.8775 38.6758 31.8775 36.7984 30.0002L36.5128 29.7146Z" fill="#006D77"/>
</svg>
